<svg width="24" height="24" viewBox="0 0 24 24" fill="none" xmlns="http://www.w3.org/2000/svg">
<g id="Group 7">
<circle id="Ellipse 1" cx="12" cy="12" r="12" fill="#747474"/>
<path id="SF Symbol" d="M7.67762 17.3333C7.9683 17.3333 8.22107 17.2196 8.41064 17.0174L11.9873 13.4155L15.5892 17.0174C15.7787 17.207 16.0189 17.3333 16.3095 17.3333C16.8656 17.3333 17.3206 16.8657 17.3206 16.3096C17.3206 16.019 17.2195 15.7788 17.0173 15.5893L13.428 12L17.0299 8.38547C17.2448 8.17062 17.3332 7.95577 17.3332 7.67773C17.3332 7.10901 16.8783 6.66667 16.3222 6.66667C16.0568 6.66667 15.8419 6.75514 15.6271 6.96999L11.9873 10.5845L8.38536 6.98263C8.19579 6.78042 7.9683 6.69195 7.67762 6.69195C7.12154 6.69195 6.66656 7.12165 6.66656 7.69037C6.66656 7.96841 6.78031 8.20854 6.96988 8.39811L10.5591 12L6.96988 15.6019C6.78031 15.7788 6.66656 16.0316 6.66656 16.3096C6.66656 16.8657 7.12154 17.3333 7.67762 17.3333Z" fill="white"/>
</g>
</svg>
