<svg width="698.80625px" height="122px" xmlns="http://www.w3.org/2000/svg" viewBox="-99.40312499999999 14 698.80625 122" style="background: rgba(0, 0, 0, 0);" preserveAspectRatio="xMidYMid"><defs><filter id="editing-extrusion" x="-100%" y="-100%" width="300%" height="300%"><feFlood result="color1" flood-color="#444"></feFlood><feConvolveMatrix order="8,8" divisor="1" kernelMatrix="1 0 0 0 0 0 0 0 0 1 0 0 0 0 0 0 0 0 1 0 0 0 0 0 0 0 0 1 0 0 0 0 0 0 0 0 1 0 0 0 0 0 0 0 0 1 0 0 0 0 0 0 0 0 1 0 0 0 0 0 0 0 0 1" in="SourceAlpha" result="extrude"></feConvolveMatrix><feComposite in="color1" in2="extrude" result="comp-extrude" operator="in"></feComposite><feOffset dx="4" dy="4" in="comp-extrude" result="offset-extrude"></feOffset><feMerge><feMergeNode in="offset-extrude"></feMergeNode><feMergeNode in="SourceGraphic"></feMergeNode></feMerge></filter></defs><g filter="url(#editing-extrusion)"><g transform="translate(1.5199862122535706, 104.76000022888184)"><path d="M42.62-26.56L42.62-26.56L42.62-26.56Q42.62 0.70 13.06 0.70L13.06 0.70L13.06 0.70Q8.32 0.70 0.51-0.45L0.51-0.45L7.68-38.27L7.68-38.27Q8.19-40.83 8.51-42.30L8.51-42.30L8.51-42.30Q18.24-43.01 22.56-43.01L22.56-43.01L22.56-43.01Q26.88-43.01 30.85-42.11L30.85-42.11L30.85-42.11Q34.82-41.22 37.44-39.23L37.44-39.23L37.44-39.23Q42.62-35.33 42.62-26.56ZM29.44-28.93L29.44-28.93L29.44-28.93Q29.44-38.46 22.59-38.46L22.59-38.46L21.95-38.46L21.95-38.46Q21.63-38.46 21.31-38.40L21.31-38.40L14.72-4.03L14.72-4.03Q14.98-3.90 15.23-3.90L15.23-3.90L15.74-3.90L15.74-3.90Q18.11-3.90 20.58-5.38L20.58-5.38L20.58-5.38Q23.04-6.85 24.96-9.86L24.96-9.86L24.96-9.86Q29.44-16.83 29.44-28.93ZM71.81-10.82L71.81-10.82L71.81-10.82Q73.41-9.73 73.41-7.33L73.41-7.33L73.41-7.33Q73.41-4.93 72.19-3.39L72.19-3.39L72.19-3.39Q70.98-1.86 68.99-0.83L68.99-0.83L68.99-0.83Q64.90 1.28 60.48 1.28L60.48 1.28L60.48 1.28Q56.06 1.28 53.47 0.32L53.47 0.32L53.47 0.32Q50.88-0.64 49.15-2.43L49.15-2.43L49.15-2.43Q45.76-5.82 45.76-12.03L45.76-12.03L45.76-12.03Q45.76-21.70 51.01-27.58L51.01-27.58L51.01-27.58Q56.64-33.92 66.43-33.92L66.43-33.92L66.43-33.92Q72.51-33.92 75.52-31.36L75.52-31.36L75.52-31.36Q77.76-29.44 77.76-26.30L77.76-26.30L77.76-26.30Q77.76-15.04 58.30-15.04L58.30-15.04L58.30-15.04Q58.05-13.38 58.05-11.97L58.05-11.97L58.05-11.97Q58.05-9.02 59.36-7.90L59.36-7.90L59.36-7.90Q60.67-6.78 63.10-6.78L63.10-6.78L63.10-6.78Q65.54-6.78 68.13-7.90L68.13-7.90L68.13-7.90Q70.72-9.02 71.81-10.82ZM58.75-17.79L58.75-17.79L58.75-17.79Q63.30-17.79 65.92-20.61L65.92-20.61L65.92-20.61Q68.54-23.30 68.54-27.58L68.54-27.58L68.54-27.58Q68.54-29.06 68-29.86L68-29.86L68-29.86Q67.46-30.66 66.37-30.66L66.37-30.66L66.37-30.66Q65.28-30.66 64.35-30.24L64.35-30.24L64.35-30.24Q63.42-29.82 62.46-28.42L62.46-28.42L62.46-28.42Q60.10-25.22 58.75-17.79ZM107.01 1.28L107.01 1.28L107.01 1.28Q99.26 1.28 99.26-4.74L99.26-4.74L99.26-4.74Q99.33-6.40 99.84-9.22L99.84-9.22L100.99-15.10L100.99-15.10Q102.72-23.42 102.72-25.28L102.72-25.28L102.72-25.28Q102.72-28.99 100.54-28.99L100.54-28.99L100.54-28.99Q96.90-28.99 94.98-19.46L94.98-19.46L91.20 0L78.34 1.28L84.99-32.70L95.49-33.92L94.46-27.65L94.46-27.65Q97.47-33.92 106.69-33.92L106.69-33.92L106.69-33.92Q111.17-33.92 113.06-32.03L113.06-32.03L113.06-32.03Q114.94-30.14 114.94-25.92L114.94-25.92L114.94-25.92Q114.94-21.95 112.90-12.67L112.90-12.67L112.90-12.67Q111.94-8.51 111.94-6.94L111.94-6.94L111.94-6.94Q111.94-5.38 112.80-4.48L112.80-4.48L112.80-4.48Q113.66-3.58 114.94-3.46L114.94-3.46L114.94-3.46Q114.30-1.28 112.10 0L112.10 0L112.10 0Q109.89 1.28 107.01 1.28ZM135.42-3.52L135.42-3.52L135.42-3.52Q133.44 1.28 127.10 1.28L127.10 1.28L127.10 1.28Q123.84 1.28 121.79-0.96L121.79-0.96L121.79-0.96Q120.06-2.94 120.06-4.93L120.06-4.93L120.06-4.93Q120.06-10.11 122.43-20.22L122.43-20.22L124.80-32.64L137.79-33.92L133.89-13.70L133.89-13.70Q132.80-8.96 132.80-7.30L132.80-7.30L132.80-7.30Q132.80-3.65 135.42-3.52ZM125.95-41.54L125.95-41.54L125.95-41.54Q125.95-44.03 128.03-45.38L128.03-45.38L128.03-45.38Q130.11-46.72 133.12-46.72L133.12-46.72L133.12-46.72Q136.13-46.72 137.95-45.38L137.95-45.38L137.95-45.38Q139.78-44.03 139.78-41.54L139.78-41.54L139.78-41.54Q139.78-39.04 137.76-37.76L137.76-37.76L137.76-37.76Q135.74-36.48 132.74-36.48L132.74-36.48L132.74-36.48Q129.73-36.48 127.84-37.76L127.84-37.76L127.84-37.76Q125.95-39.04 125.95-41.54ZM160-22.46L160-22.46L160-22.46Q160.90-24.83 160.90-26.88L160.90-26.88L160.90-26.88Q160.90-30.66 157.82-30.66L157.82-30.66L157.82-30.66Q156.22-30.66 154.91-29.22L154.91-29.22L154.91-29.22Q153.60-27.78 153.60-25.98L153.60-25.98L153.60-25.98Q153.60-24.70 154.62-23.68L154.62-23.68L154.62-23.68Q156.10-22.27 159.87-19.97L159.87-19.97L159.87-19.97Q163.65-17.66 165.09-15.78L165.09-15.78L165.09-15.78Q166.53-13.89 166.53-11.30L166.53-11.30L166.53-11.30Q166.53-8.70 165.28-6.34L165.28-6.34L165.28-6.34Q164.03-3.97 161.79-2.30L161.79-2.30L161.79-2.30Q156.99 1.28 149.31 1.28L149.31 1.28L149.31 1.28Q145.15 1.28 141.95-0.90L141.95-0.90L141.95-0.90Q138.75-3.01 138.75-5.50L138.75-5.50L138.75-5.50Q138.75-8 140.58-9.47L140.58-9.47L140.58-9.47Q142.40-10.94 145.09-10.94L145.09-10.94L145.09-10.94Q147.78-10.94 149.44-9.92L149.44-9.92L149.44-9.92Q148.61-7.81 148.61-6.40L148.61-6.40L148.61-6.40Q148.61-2.18 152.19-2.18L152.19-2.18L152.19-2.18Q153.73-2.18 154.75-3.14L154.75-3.14L154.75-3.14Q155.78-4.10 155.78-5.76L155.78-5.76L155.78-5.76Q155.78-9.02 150.27-12.48L150.27-12.48L150.27-12.48Q145.79-15.42 144.77-16.58L144.77-16.58L144.77-16.58Q143.04-18.62 143.04-21.18L143.04-21.18L143.04-21.18Q143.04-23.74 144.26-26.18L144.26-26.18L144.26-26.18Q145.47-28.61 147.71-30.34L147.71-30.34L147.71-30.34Q152.38-33.92 160.51-33.92L160.51-33.92L160.51-33.92Q164.67-33.92 167.14-32.26L167.14-32.26L167.14-32.26Q169.60-30.59 169.60-27.78L169.60-27.78L169.60-27.78Q169.60-24.96 167.90-23.36L167.90-23.36L167.90-23.36Q166.21-21.76 163.14-21.76L163.14-21.76L163.14-21.76Q161.02-21.76 160-22.46ZM198.40 0L184.45 0L192.58-42.24L206.66-42.24L198.40 0ZM212.61-26.75L212.61-26.75L212.61-26.75Q214.78-29.82 218.08-31.87L218.08-31.87L218.08-31.87Q221.38-33.92 225.41-33.92L225.41-33.92L225.41-33.92Q229.44-33.92 231.36-32.64L231.36-32.64L243.90-33.92L239.55-9.34L239.55-9.34Q237.31 3.20 232.58 8.13L232.58 8.13L232.58 8.13Q228.03 12.80 219.20 12.80L219.20 12.80L219.20 12.80Q212.48 12.80 208.64 10.69L208.64 10.69L208.64 10.69Q204.80 8.58 204.80 5.06L204.80 5.06L204.80 5.06Q204.80 2.43 206.78 0.93L206.78 0.93L206.78 0.93Q208.77-0.58 211.84-0.58L211.84-0.58L211.84-0.58Q214.53-0.58 216.58 0.64L216.58 0.64L216.58 0.64Q217.79 1.28 218.37 2.18L218.37 2.18L218.37 2.18Q216.90 3.46 216.90 5.57L216.90 5.57L216.90 5.57Q216.90 8.32 219.46 8.32L219.46 8.32L219.46 8.32Q223.74 8.32 226.18-1.79L226.18-1.79L226.18-1.79Q226.88-4.54 227.46-7.30L227.46-7.30L227.46-7.30Q224.58-3.78 218.05-3.78L218.05-3.78L218.05-3.78Q213.50-3.78 210.88-5.95L210.88-5.95L210.88-5.95Q208.26-8.13 208.26-13.25L208.26-13.25L208.26-13.25Q208.26-16.45 209.34-20.06L209.34-20.06L209.34-20.06Q210.43-23.68 212.61-26.75ZM220.93-13.06L220.93-13.06L220.93-13.06Q220.93-8.70 223.17-8.70L223.17-8.70L223.17-8.70Q224.70-8.70 226.18-10.37L226.18-10.37L226.18-10.37Q227.33-11.71 227.78-13.70L227.78-13.70L231.04-30.14L231.04-30.14Q230.72-30.21 230.40-30.34L230.40-30.34L230.40-30.34Q229.76-30.59 228.93-30.59L228.93-30.59L228.93-30.59Q225.02-30.59 222.72-24.19L222.72-24.19L222.72-24.19Q220.93-19.20 220.93-13.06ZM273.47 1.28L273.47 1.28L273.47 1.28Q265.73 1.28 265.73-4.74L265.73-4.74L265.73-4.74Q265.79-6.40 266.30-9.22L266.30-9.22L267.46-15.10L267.46-15.10Q269.18-23.42 269.18-25.28L269.18-25.28L269.18-25.28Q269.18-28.99 267.01-28.99L267.01-28.99L267.01-28.99Q263.36-28.99 261.44-19.46L261.44-19.46L257.66 0L244.80 1.28L251.46-32.70L261.95-33.92L260.93-27.65L260.93-27.65Q263.94-33.92 273.15-33.92L273.15-33.92L273.15-33.92Q277.63-33.92 279.52-32.03L279.52-32.03L279.52-32.03Q281.41-30.14 281.41-25.92L281.41-25.92L281.41-25.92Q281.41-21.95 279.36-12.67L279.36-12.67L279.36-12.67Q278.40-8.51 278.40-6.94L278.40-6.94L278.40-6.94Q278.40-5.38 279.26-4.48L279.26-4.48L279.26-4.48Q280.13-3.58 281.41-3.46L281.41-3.46L281.41-3.46Q280.77-1.28 278.56 0L278.56 0L278.56 0Q276.35 1.28 273.47 1.28ZM289.31-1.92L289.31-1.92L289.31-1.92Q287.81-3.58 287.14-6.21L287.14-6.21L287.14-6.21Q286.46-8.83 286.46-13.12L286.46-13.12L286.46-13.12Q286.46-17.41 287.94-21.31L287.94-21.31L287.94-21.31Q289.41-25.22 292.10-28.03L292.10-28.03L292.10-28.03Q297.60-33.92 306.69-33.92L306.69-33.92L306.69-33.92Q309.95-33.92 312.32-32.83L312.32-32.83L323.26-33.92L318.53-8.96L318.53-8.96Q318.34-8.19 318.34-6.78L318.34-6.78L318.34-6.78Q318.34-5.38 319.20-4.48L319.20-4.48L319.20-4.48Q320.06-3.58 321.34-3.46L321.34-3.46L321.34-3.46Q320.70-1.28 318.37 0L318.37 0L318.37 0Q316.03 1.28 313.41 1.28L313.41 1.28L313.41 1.28Q310.78 1.28 309.02 0.29L309.02 0.29L309.02 0.29Q307.26-0.70 306.75-2.37L306.75-2.37L306.75-2.37Q305.73-0.77 303.55 0.26L303.55 0.26L303.55 0.26Q301.38 1.28 298.46 1.28L298.46 1.28L298.46 1.28Q295.55 1.28 293.18 0.51L293.18 0.51L293.18 0.51Q290.82-0.26 289.31-1.92ZM302.82-27.90L302.82-27.90L302.82-27.90Q302.08-26.75 301.44-24.80L301.44-24.80L301.44-24.80Q300.80-22.85 299.74-17.63L299.74-17.63L299.74-17.63Q298.69-12.42 298.69-8.70L298.69-8.70L298.69-8.70Q298.69-4.99 299.26-3.90L299.26-3.90L299.26-3.90Q299.84-2.82 300.86-2.82L300.86-2.82L300.86-2.82Q302.91-2.82 304.42-4.77L304.42-4.77L304.42-4.77Q305.92-6.72 306.50-10.18L306.50-10.18L309.89-28.93L309.89-28.93Q308.54-30.08 306.98-30.08L306.98-30.08L306.98-30.08Q305.41-30.08 304.48-29.57L304.48-29.57L304.48-29.57Q303.55-29.06 302.82-27.90ZM327.74-6.40L327.74-6.40L327.74-6.40Q327.74-8.13 328.64-12.48L328.64-12.48L332.03-29.76L328.26-29.76L328.51-31.68L328.51-31.68Q336.19-33.98 343.62-39.62L343.62-39.62L346.69-39.62L345.15-32.64L350.14-32.64L349.57-29.76L344.64-29.76L341.38-12.48L341.38-12.48Q340.54-8.51 340.54-7.17L340.54-7.17L340.54-7.17Q340.54-4.10 343.23-3.46L343.23-3.46L343.23-3.46Q342.59-1.28 340.29 0L340.29 0L340.29 0Q337.98 1.28 334.72 1.28L334.72 1.28L334.72 1.28Q331.46 1.28 329.60-0.77L329.60-0.77L329.60-0.77Q327.74-2.82 327.74-6.40ZM375.49-10.82L375.49-10.82L375.49-10.82Q377.09-9.73 377.09-7.33L377.09-7.33L377.09-7.33Q377.09-4.93 375.87-3.39L375.87-3.39L375.87-3.39Q374.66-1.86 372.67-0.83L372.67-0.83L372.67-0.83Q368.58 1.28 364.16 1.28L364.16 1.28L364.16 1.28Q359.74 1.28 357.15 0.32L357.15 0.32L357.15 0.32Q354.56-0.64 352.83-2.43L352.83-2.43L352.83-2.43Q349.44-5.82 349.44-12.03L349.44-12.03L349.44-12.03Q349.44-21.70 354.69-27.58L354.69-27.58L354.69-27.58Q360.32-33.92 370.11-33.92L370.11-33.92L370.11-33.92Q376.19-33.92 379.20-31.36L379.20-31.36L379.20-31.36Q381.44-29.44 381.44-26.30L381.44-26.30L381.44-26.30Q381.44-15.04 361.98-15.04L361.98-15.04L361.98-15.04Q361.73-13.38 361.73-11.97L361.73-11.97L361.73-11.97Q361.73-9.02 363.04-7.90L363.04-7.90L363.04-7.90Q364.35-6.78 366.78-6.78L366.78-6.78L366.78-6.78Q369.22-6.78 371.81-7.90L371.81-7.90L371.81-7.90Q374.40-9.02 375.49-10.82ZM362.43-17.79L362.43-17.79L362.43-17.79Q366.98-17.79 369.60-20.61L369.60-20.61L369.60-20.61Q372.22-23.30 372.22-27.58L372.22-27.58L372.22-27.58Q372.22-29.06 371.68-29.86L371.68-29.86L371.68-29.86Q371.14-30.66 370.05-30.66L370.05-30.66L370.05-30.66Q368.96-30.66 368.03-30.24L368.03-30.24L368.03-30.24Q367.10-29.82 366.14-28.42L366.14-28.42L366.14-28.42Q363.78-25.22 362.43-17.79ZM410.69 1.28L410.69 1.28L410.69 1.28Q402.94 1.28 402.94-4.74L402.94-4.74L402.94-4.74Q403.01-6.40 403.52-9.22L403.52-9.22L404.67-15.10L404.67-15.10Q406.40-23.42 406.40-25.28L406.40-25.28L406.40-25.28Q406.40-28.99 404.22-28.99L404.22-28.99L404.22-28.99Q400.58-28.99 398.66-19.46L398.66-19.46L394.88 0L382.02 1.28L388.67-32.70L399.17-33.92L398.14-27.65L398.14-27.65Q401.15-33.92 410.37-33.92L410.37-33.92L410.37-33.92Q414.85-33.92 416.74-32.03L416.74-32.03L416.74-32.03Q418.62-30.14 418.62-25.92L418.62-25.92L418.62-25.92Q418.62-21.95 416.58-12.67L416.58-12.67L416.58-12.67Q415.62-8.51 415.62-6.94L415.62-6.94L415.62-6.94Q415.62-5.38 416.48-4.48L416.48-4.48L416.48-4.48Q417.34-3.58 418.62-3.46L418.62-3.46L418.62-3.46Q417.98-1.28 415.78 0L415.78 0L415.78 0Q413.57 1.28 410.69 1.28ZM440.26-30.34L440.26-30.34L440.26-30.34Q443.71-33.92 451.01-33.92L451.01-33.92L451.01-33.92Q455.04-33.92 457.25-31.78L457.25-31.78L457.25-31.78Q459.46-29.63 459.46-25.70L459.46-25.70L459.46-25.70Q459.46-21.76 457.25-18.98L457.25-18.98L457.25-18.98Q455.04-16.19 450.94-15.04L450.94-15.04L450.94-15.04Q451.26-13.76 451.71-12.42L451.71-12.42L452.61-9.86L452.61-9.86Q453.82-6.59 454.78-5.44L454.78-5.44L454.78-5.44Q455.74-4.29 457.02-3.90L457.02-3.90L457.02-3.90Q456.32-1.28 453.76 0.13L453.76 0.13L453.76 0.13Q451.71 1.28 448.90 1.28L448.90 1.28L448.90 1.28Q440.64 1.28 439.55-11.46L439.55-11.46L439.55-11.46Q439.36-13.25 439.36-15.04L439.36-15.04L439.36-15.04Q442.56-15.94 444.80-18.94L444.80-18.94L444.80-18.94Q447.04-21.95 447.04-25.47L447.04-25.47L447.04-25.47Q447.04-28.99 444.54-28.99L444.54-28.99L444.54-28.99Q442.75-28.99 441.34-27.01L441.34-27.01L441.34-27.01Q439.94-25.02 439.30-21.63L439.30-21.63L435.07 0L422.14 1.28L431.10-44.80L443.97-46.08L442.50-38.46L442.50-38.46Q441.54-33.09 440.26-30.34ZM476.35 1.28L476.35 1.28L476.35 1.28Q462.27 1.28 462.27-11.97L462.27-11.97L462.27-11.97Q462.27-21.38 467.46-27.46L467.46-27.46L467.46-27.46Q472.96-33.92 482.50-33.92L482.50-33.92L482.50-33.92Q489.41-33.92 492.93-30.72L492.93-30.72L492.93-30.72Q496.45-27.52 496.45-20.80L496.45-20.80L496.45-20.80Q496.45-10.56 490.94-4.61L490.94-4.61L490.94-4.61Q485.57 1.28 476.35 1.28ZM478.02-26.56L478.02-26.56L478.02-26.56Q477.25-24.83 476.64-22.24L476.64-22.24L476.64-22.24Q476.03-19.65 475.26-15.55L475.26-15.55L475.26-15.55Q474.50-11.46 474.50-6.40L474.50-6.40L474.50-6.40Q474.50-4.74 475.04-3.65L475.04-3.65L475.04-3.65Q475.58-2.56 477.06-2.56L477.06-2.56L477.06-2.56Q478.53-2.56 479.46-3.26L479.46-3.26L479.46-3.26Q480.38-3.97 481.09-5.63L481.09-5.63L481.09-5.63Q482.37-8.58 483.39-14.05L483.39-14.05L483.39-14.05Q484.42-19.52 484.51-21.89L484.51-21.89L484.51-21.89Q484.61-24.26 484.61-26.02L484.61-26.02L484.61-26.02Q484.61-27.78 484.10-28.93L484.10-28.93L484.10-28.93Q483.58-30.08 482.14-30.08L482.14-30.08L482.14-30.08Q480.70-30.08 479.74-29.18L479.74-29.18L479.74-29.18Q478.78-28.29 478.02-26.56Z" fill="#ccc"></path></g></g><style>text {
  font-size: 64px;
  font-family: Arial Black;
  dominant-baseline: central;
  text-anchor: middle;
}</style></svg>