<svg width="141" height="49" viewBox="0 0 141 49" fill="none" xmlns="http://www.w3.org/2000/svg">
<path d="M0.691015 47.8059V1.1879H47.1956V47.8059H0.691015Z" stroke="#29EDFF" stroke-width="1.38203"/>
<path d="M11.5376 9.23819H9.64684V10.5919H11.4604V11.0561H9.64684V12.874H11.499V13.3381H9.1452V8.77405H11.499V9.23819H11.5376Z" fill="#29EDFF"/>
<path d="M18.7148 8.77405V12.874H19.9881V13.3381H18.2131V8.77405H18.7148Z" fill="#29EDFF"/>
<path d="M27.667 8.77405C27.9371 8.77405 28.3616 8.81273 28.7089 9.0448C28.8632 9.16083 29.1333 9.43158 29.1333 9.97308C29.1333 10.2052 29.0947 10.5919 28.6703 10.8627C29.2877 11.0174 29.5578 11.5589 29.5578 12.023C29.5578 12.4872 29.3263 12.8353 29.0947 13.0287C28.7474 13.2994 28.323 13.3381 28.0143 13.3381H26.8953V8.77405H27.667ZM27.3583 10.7853H27.7442C28.0143 10.7853 28.6317 10.7467 28.6317 10.0118C28.6317 9.27687 27.8985 9.23819 27.7442 9.23819H27.3583V10.7853ZM27.3583 12.874H27.9371C28.2458 12.874 28.5159 12.8353 28.7474 12.6806C28.9404 12.5645 29.0561 12.3325 29.0561 12.0617C29.0561 11.7136 28.8632 11.4815 28.6703 11.4042C28.5159 11.3268 28.2458 11.2495 27.8985 11.2495H27.3969V12.874H27.3583Z" fill="#29EDFF"/>
<path d="M36.4262 8.77405C36.7349 8.77405 37.1979 8.81273 37.5452 9.0448C37.8153 9.23819 38.0469 9.5863 38.0469 10.0504C38.0469 10.7467 37.5838 11.2495 36.8892 11.3268L38.3556 13.3768H37.7382L36.349 11.3268H36.2333V13.3381H35.7316V8.77405H36.4262ZM36.1947 10.9014H36.5034C37.1208 10.9014 37.5066 10.5919 37.5066 10.0504C37.5066 9.77969 37.4295 9.54762 37.1594 9.3929C36.9664 9.27687 36.7349 9.27687 36.5034 9.27687H36.1947V10.9014Z" fill="#29EDFF"/>
<path d="M9.10658 20.571C9.10658 20.9578 9.10658 21.3833 9.45386 21.6927C9.6468 21.8474 9.9555 21.9634 10.187 21.9634C10.4185 21.9634 10.7658 21.8474 10.9202 21.6927C11.2675 21.3833 11.2675 20.9578 11.2675 20.571V17.7862H11.7691V20.7257C11.7691 21.1125 11.7305 21.4606 11.499 21.8087C11.2289 22.1955 10.7658 22.4276 10.1484 22.4276C9.56962 22.4276 9.10658 22.1955 8.79788 21.8087C8.56636 21.4606 8.52777 21.1125 8.52777 20.7257V17.7862H9.0294V20.571H9.10658Z" fill="#29EDFF"/>
<path d="M19.9881 18.6757C19.911 18.5597 19.8338 18.405 19.718 18.3276C19.6409 18.2503 19.4479 18.1729 19.2164 18.1729C18.7534 18.1729 18.4447 18.4437 18.4447 18.8691C18.4447 19.0625 18.4832 19.1399 18.599 19.2559C18.7534 19.4106 18.9077 19.4493 19.0621 19.5267L19.4865 19.72C19.7566 19.8361 19.9881 19.9521 20.1811 20.1455C20.4126 20.3776 20.5284 20.6483 20.5284 20.9578C20.5284 21.8087 19.911 22.3502 19.1006 22.3502C18.7919 22.3502 18.4061 22.2728 18.0974 21.9634C17.8658 21.7313 17.7501 21.4219 17.6729 21.1512L18.1745 20.9964C18.2131 21.2285 18.3289 21.4606 18.4447 21.5766C18.6376 21.77 18.8691 21.8474 19.1006 21.8474C19.718 21.8474 20.0267 21.3832 20.0267 20.9578C20.0267 20.7644 19.9496 20.571 19.7952 20.4163C19.6794 20.3002 19.4865 20.2229 19.255 20.1068L18.8305 19.9134C18.6376 19.8361 18.4447 19.72 18.2131 19.5267C18.0202 19.3333 17.9044 19.1399 17.9044 18.7918C17.9044 18.0956 18.4447 17.6314 19.1778 17.6314C19.4479 17.6314 19.6794 17.6701 19.911 17.8248C20.1039 17.9408 20.2583 18.1342 20.374 18.3276L19.9881 18.6757Z" fill="#29EDFF"/>
<path d="M29.442 17.206L29.8279 17.3994L26.3936 23.5492L26.0078 23.3558L29.442 17.206Z" fill="#29EDFF"/>
<path d="M10.1099 26.7596C10.38 26.7596 10.8045 26.7983 11.1518 27.0303C11.3061 27.1464 11.5762 27.4171 11.5762 27.9586C11.5762 28.1907 11.5377 28.5775 11.1132 28.8482C11.7306 29.0029 12.0007 29.5444 12.0007 30.0086C12.0007 30.434 11.7692 30.8208 11.5377 31.0142C11.1904 31.285 10.7659 31.3236 10.4572 31.3236H9.3382V26.7596H10.1099ZM9.80124 28.7709H10.1871C10.4572 28.7709 11.0746 28.7322 11.0746 27.9973C11.0746 27.2624 10.3415 27.2237 10.1871 27.2237H9.80124V28.7709ZM9.80124 30.8595H10.38C10.6887 30.8595 10.9589 30.8208 11.1904 30.6661C11.3833 30.5501 11.4991 30.318 11.4991 30.0473C11.4991 29.6991 11.3061 29.4671 11.1132 29.3897C10.9589 29.3124 10.6887 29.235 10.3415 29.235H9.83983V30.8595H9.80124Z" fill="#29EDFF"/>
<path d="M18.0974 30.7435C17.7887 30.318 17.6344 29.6992 17.6344 29.0803C17.6344 28.4228 17.7887 27.8426 18.0974 27.4171C18.4447 26.9143 18.9078 26.7209 19.2551 26.7209C19.6023 26.7209 20.0654 26.9143 20.4127 27.4171C20.7214 27.8426 20.8757 28.4614 20.8757 29.0803C20.8757 29.7378 20.7214 30.318 20.4127 30.7435C20.0654 31.2463 19.6023 31.4397 19.2551 31.4397C18.9078 31.4397 18.4447 31.2463 18.0974 30.7435ZM18.4833 27.6492C18.2518 28.036 18.136 28.5775 18.136 29.0416C18.136 29.5058 18.2132 30.0473 18.4833 30.434C18.7148 30.8208 19.0235 30.9369 19.2551 30.9369C19.4866 30.9369 19.7953 30.8208 20.0268 30.434C20.2583 30.0473 20.3741 29.5058 20.3741 29.0416C20.3741 28.5775 20.2969 28.036 20.0268 27.6492C19.7953 27.2624 19.4866 27.1464 19.2551 27.1464C19.0235 27.1464 18.7148 27.2624 18.4833 27.6492Z" fill="#29EDFF"/>
<path d="M26.8952 30.7435C26.5865 30.318 26.4322 29.6992 26.4322 29.0803C26.4322 28.4228 26.5865 27.8426 26.8952 27.4171C27.2425 26.9143 27.7056 26.7209 28.0528 26.7209C28.4001 26.7209 28.8632 26.9143 29.2105 27.4171C29.5192 27.8426 29.6735 28.4614 29.6735 29.0803C29.6735 29.7378 29.5192 30.318 29.2105 30.7435C28.8632 31.2463 28.4001 31.4397 28.0528 31.4397C27.7056 31.4397 27.2425 31.2463 26.8952 30.7435ZM27.2811 27.6492C27.0496 28.036 26.9338 28.5775 26.9338 29.0416C26.9338 29.5058 27.011 30.0473 27.2811 30.434C27.5126 30.8208 27.8213 30.9369 28.0528 30.9369C28.2844 30.9369 28.5931 30.8208 28.8246 30.434C29.0561 30.0473 29.1719 29.5058 29.1719 29.0416C29.1719 28.5775 29.0947 28.036 28.8246 27.6492C28.5931 27.2624 28.2844 27.1464 28.0528 27.1464C27.8213 27.1464 27.5126 27.2624 27.2811 27.6492Z" fill="#29EDFF"/>
<path d="M37.198 27.2624V31.3623H36.6964V27.2624H35.5773V26.7982H38.317V27.2624H37.198Z" fill="#29EDFF"/>
<path d="M12.1164 36.7773C11.9621 36.6226 11.7691 36.4679 11.5376 36.3519C11.3061 36.2358 11.036 36.1585 10.7659 36.1585C9.724 36.1585 8.95226 37.0094 8.95226 38.0537C8.95226 39.2914 9.95552 39.9103 10.8044 39.9103C11.1131 39.9103 11.4218 39.8329 11.6534 39.7169C11.9235 39.6009 12.1164 39.4075 12.1936 39.3301V39.949C11.6919 40.2971 11.1517 40.4131 10.8044 40.4131C9.45389 40.4131 8.45062 39.3688 8.45062 38.0537C8.45062 36.7 9.45389 35.6943 10.843 35.6943C11.1131 35.6943 11.6534 35.733 12.1936 36.1585V36.7773H12.1164Z" fill="#29EDFF"/>
<path d="M20.2197 39.0593H18.2903L17.7501 40.3357H17.1713L19.255 35.5396L21.3001 40.3357H20.7213L20.2197 39.0593ZM20.0267 38.5565L19.255 36.7386L18.4832 38.5565H20.0267Z" fill="#29EDFF"/>
<path d="M25.7376 40.3357L26.5094 35.5009L28.2458 39.3687L30.0208 35.5009L30.7154 40.3357H30.2137L29.7893 37.1641L28.2458 40.5291L26.7023 37.1641L26.2392 40.3357H25.7376Z" fill="#29EDFF"/>
<path d="M36.735 35.7717C37.1981 35.7717 37.5839 35.8103 37.8926 36.0811C38.2399 36.3518 38.3171 36.7773 38.3171 37.0481C38.3171 37.7056 37.9312 38.3245 36.8894 38.3245H36.4263V40.2971H35.8861V35.7717H36.735ZM36.4263 37.8603H36.8508C37.4682 37.8603 37.8155 37.5509 37.8155 37.0481C37.8155 36.3132 37.1209 36.2358 36.8122 36.2358H36.4263V37.8603Z" fill="#29EDFF"/>
<path fill-rule="evenodd" clip-rule="evenodd" d="M75.0411 35.3518L69.0136 24.8692H65.3447V35.3518H62.724V12.4212H65.3447V22.4452H68.817L74.3859 12.4212H77.5307L71.1756 23.5917L78.2186 35.3518H75.0411ZM72.349 23.5786L80.0068 36.3652H74.4548L68.4273 25.8827H66.3581V36.3652H61.7106V11.4078H66.3581V21.4317H68.2207L73.7896 11.4078H79.2732L72.349 23.5786ZM97.8585 36.3652H93.2111V20.7911L87.0174 36.3652H81.4837V11.4078H86.1312V26.9819L92.3248 11.4078H97.8585V36.3652ZM85.1177 32.2726V12.4212H82.4971V35.3518H86.3298L94.2245 15.5005V35.3518H96.8451V12.4212H93.0124L85.1177 32.2726ZM118.287 11.4078V36.3652H113.639V25.8827H106.952V36.3652H102.305V11.4078H106.952V21.4317H113.639V11.4078H118.287ZM114.653 22.4452H105.939V12.4212H103.318V35.3518H105.939V24.8692H114.653V35.3518H117.273V12.4212H114.653V22.4452ZM138.867 30.7935L138.865 30.7976C138.07 32.6926 136.985 34.1845 135.572 35.1937C134.179 36.1885 132.62 36.6928 130.921 36.6928C129.222 36.6928 127.662 36.1885 126.27 35.1937C124.857 34.1845 123.771 32.6926 122.976 30.7976L122.974 30.7935C122.167 28.8473 121.783 26.5346 121.783 23.8865C121.783 21.2399 122.167 18.9368 122.975 17.0102C123.769 15.0953 124.854 13.5904 126.27 12.5793C127.662 11.5846 129.222 11.0802 130.921 11.0802C132.62 11.0802 134.179 11.5846 135.572 12.5793C136.987 13.5904 138.072 15.0953 138.866 17.0102C139.674 18.9368 140.058 21.2399 140.058 23.8865C140.058 26.5346 139.674 28.8473 138.867 30.7935ZM137.931 17.4004C137.188 15.6096 136.206 14.2775 134.983 13.4039C133.76 12.5304 132.406 12.0936 130.921 12.0936C129.436 12.0936 128.082 12.5304 126.859 13.4039C125.636 14.2775 124.653 15.6096 123.91 17.4004C123.168 19.1694 122.797 21.3314 122.797 23.8865C122.797 26.4416 123.168 28.6146 123.91 30.4054C124.653 32.1743 125.636 33.4955 126.859 34.3691C128.082 35.2426 129.436 35.6794 130.921 35.6794C132.406 35.6794 133.76 35.2426 134.983 34.3691C136.206 33.4955 137.188 32.1743 137.931 30.4054C138.673 28.6146 139.045 26.4416 139.045 23.8865C139.045 21.3314 138.673 19.1694 137.931 17.4004ZM132.974 16.3961L132.964 16.3867C132.293 15.7868 131.621 15.5311 130.921 15.5311C130.138 15.5311 129.436 15.7992 128.779 16.3867L128.774 16.3917L128.768 16.3966C128.115 16.9641 127.541 17.8581 127.098 19.1667L127.096 19.1712C126.662 20.4344 126.431 21.9984 126.431 23.8865C126.431 25.7468 126.672 27.3086 127.126 28.5932C127.588 29.8997 128.172 30.8134 128.834 31.4098C129.526 31.9914 130.214 32.2419 130.921 32.2419C131.71 32.2419 132.414 31.9797 133.068 31.4139C133.73 30.8188 134.304 29.9176 134.744 28.6367C135.18 27.3491 135.411 25.7727 135.411 23.8865C135.411 22.0263 135.17 20.4644 134.715 19.1798C134.253 17.8726 133.66 16.9761 132.985 16.4051L132.974 16.3961ZM135.703 28.964C135.223 30.3617 134.568 31.4318 133.738 32.1743C132.908 32.895 131.969 33.2553 130.921 33.2553C129.938 33.2553 129.021 32.895 128.169 32.1743C127.339 31.4318 126.673 30.3508 126.171 28.9312C125.668 27.5117 125.417 25.8301 125.417 23.8865C125.417 21.921 125.658 20.2394 126.138 18.8418C126.618 17.4223 127.274 16.3522 128.103 15.6315C128.933 14.889 129.872 14.5177 130.921 14.5177C131.903 14.5177 132.81 14.889 133.64 15.6315C134.491 16.3522 135.168 17.4223 135.671 18.8418C136.173 20.2613 136.424 21.9429 136.424 23.8865C136.424 25.852 136.184 27.5445 135.703 28.964Z" fill="#29EDFF"/>
</svg>
